<?xml version="1.0" encoding="utf-8"?>
<!-- Generator: Adobe Illustrator 16.0.0, SVG Export Plug-In . SVG Version: 6.00 Build 0)  -->
<!DOCTYPE svg PUBLIC "-//W3C//DTD SVG 1.1//EN" "http://www.w3.org/Graphics/SVG/1.1/DTD/svg11.dtd">
<svg version="1.1" id="图层_1" xmlns="http://www.w3.org/2000/svg" xmlns:xlink="http://www.w3.org/1999/xlink" x="0px" y="0px"
	 width="44px" height="38px" viewBox="0 0 44 38" enable-background="new 0 0 44 38" xml:space="preserve">
<path fill-rule="evenodd" clip-rule="evenodd" fill="#B97474" d="M36.816,22.662c-0.354,0.818-1.288,1.412-2.222,1.412H14.798
	l1.389,4.916c0.062,0.01,0.122,0.018,0.183,0.031h18.247c0.307-0.066,0.625-0.104,0.951-0.104c2.494,0,4.522,2.037,4.522,4.539
	c0,2.504-2.028,4.539-4.522,4.539s-4.523-2.035-4.523-4.539c0-0.928,0.28-1.791,0.758-2.51H19.183
	c0.479,0.719,0.758,1.582,0.758,2.51c0,2.504-2.028,4.539-4.522,4.539s-4.523-2.035-4.523-4.539c0-2.094,1.422-3.855,3.346-4.377
	L8.133,3.011C8.005,2.435,7.352,1.93,6.734,1.93H1.459C0.93,1.93,0.5,1.498,0.5,0.966c0-0.531,0.43-0.962,0.959-0.962h5.275
	c1.514,0,2.95,1.137,3.271,2.588l0.604,2.707h31.282c0.559,0,1.049,0.26,1.345,0.713c0.309,0.471,0.351,1.081,0.112,1.629
	L36.816,22.662z M35.567,36.07c1.438,0,2.604-1.17,2.604-2.613c0-1.391-1.083-2.523-2.447-2.605
	c-0.125,0.061-0.263,0.096-0.409,0.096H34.85c-1.089,0.313-1.887,1.316-1.887,2.51C32.963,34.9,34.129,36.07,35.567,36.07z
	 M12.813,33.457c0,1.443,1.166,2.613,2.604,2.613s2.604-1.17,2.604-2.613c0-1.193-0.797-2.197-1.886-2.51h-0.491
	c-0.146,0-0.283-0.035-0.406-0.094C13.884,30.947,12.813,32.076,12.813,33.457z M11.039,7.225l3.329,14.924h20.227
	c0.188,0,0.421-0.16,0.463-0.256l6.379-14.668H11.039z"/>
</svg>
