<?xml version="1.0" encoding="utf-8"?>
<!-- Generator: Adobe Illustrator 16.0.0, SVG Export Plug-In . SVG Version: 6.00 Build 0)  -->
<!DOCTYPE svg PUBLIC "-//W3C//DTD SVG 1.1//EN" "http://www.w3.org/Graphics/SVG/1.1/DTD/svg11.dtd">
<svg version="1.1" id="图层_1" xmlns="http://www.w3.org/2000/svg" xmlns:xlink="http://www.w3.org/1999/xlink" x="0px" y="0px"
	 width="34px" height="36px" viewBox="0 0 34 36" enable-background="new 0 0 34 36" xml:space="preserve">
<path fill="#FFF100" d="M16.981,22.001c0.006,0,0.013,0.001,0.019,0.001c0.007,0,0.013-0.001,0.02-0.001
	C24.731,22.012,31,28.287,31,36h3c0-7.233-4.525-13.395-10.893-15.851C26.057,18.176,28,14.817,28,11.002c0-6.075-4.925-11-11-11
	c-6.074,0-11,4.925-11,11c0,3.814,1.943,7.174,4.893,9.147C4.525,22.604,0,28.767,0,36h3C3,28.287,9.271,22.012,16.981,22.001z
	 M9,11.002c0-4.411,3.588-8,8-8s8,3.589,8,8c0,4.405-3.578,7.988-7.98,7.999C17.013,19.001,17.007,19,17,19s-0.013,0.001-0.02,0.001
	C12.579,18.99,9,15.407,9,11.002z"/>
</svg>
