<?xml version="1.0" encoding="utf-8"?>
<!-- Generator: Adobe Illustrator 16.0.0, SVG Export Plug-In . SVG Version: 6.00 Build 0)  -->
<!DOCTYPE svg PUBLIC "-//W3C//DTD SVG 1.1//EN" "http://www.w3.org/Graphics/SVG/1.1/DTD/svg11.dtd">
<svg version="1.1" id="图层_1" xmlns="http://www.w3.org/2000/svg" xmlns:xlink="http://www.w3.org/1999/xlink" x="0px" y="0px"
	 width="32px" height="34px" viewBox="0 0 32 34" enable-background="new 0 0 32 34" xml:space="preserve">
<path d="M30,0H2C0.896,0,0,0.896,0,2v30c0,1.105,0.896,2,2,2h28c1.105,0,2-0.895,2-2V2C32,0.896,31.105,0,30,0z M30,32H2V2h28V32z"
	/>
<g>
	<g>
		<path fill-rule="evenodd" clip-rule="evenodd" fill="#3E1616" d="M7,11h18c0.553,0,1-0.447,1-1c0-0.552-0.447-1-1-1H7
			c-0.552,0-1,0.448-1,1C6,10.553,6.448,11,7,11z M25,16H7c-0.552,0-1,0.448-1,1c0,0.553,0.448,1,1,1h18c0.553,0,1-0.447,1-1
			C26,16.448,25.553,16,25,16z M25,23H7c-0.552,0-1,0.447-1,1s0.448,1,1,1h18c0.553,0,1-0.447,1-1S25.553,23,25,23z"/>
	</g>
</g>
</svg>
