<?xml version="1.0" encoding="utf-8"?>
<!-- Generator: Adobe Illustrator 16.0.0, SVG Export Plug-In . SVG Version: 6.00 Build 0)  -->
<!DOCTYPE svg PUBLIC "-//W3C//DTD SVG 1.1//EN" "http://www.w3.org/Graphics/SVG/1.1/DTD/svg11.dtd">
<svg version="1.1" id="图层_1" xmlns="http://www.w3.org/2000/svg" xmlns:xlink="http://www.w3.org/1999/xlink" x="0px" y="0px"
	 width="26px" height="32px" viewBox="0 0 26 32" enable-background="new 0 0 26 32" xml:space="preserve">
<path fill-rule="evenodd" clip-rule="evenodd" fill="#A11F24" d="M24,32.042H2c-1.105,0-2-0.895-2-1.996V4.948
	c0-1.103,0.896-1.919,2-1.919h7v2.002H3c-0.552,0-1,0.447-1,0.998v23.019c0,0.551,0.448,0.998,1,0.998h20c0.552,0,1-0.447,1-0.998
	V6.03c0-0.552-0.448-0.999-1-0.999h-6V3.029h7c1.104,0,2,0.816,2,1.919v25.098C26,31.147,25.104,32.042,24,32.042z M10,12.02h10
	v2.01H10V12.02z M10,17.029l10-0.021v2.022H10V17.029z M20,23.987L10,24.03v-2h10V23.987z M6,12.029l2-0.031v2.031H6V12.029z
	 M6,16.986l2,0.043v2.001H6V16.986z M8,24.03l-2-0.064V22.03h2V24.03z M19,6.092c0.553,0,1,0.447,1,0.998s0,0.939,0,0.939H6
	c0,0,0-0.389,0-0.939s0.447-0.998,1-0.998h3c0,0,0.012-1.419,0.012-3.041c0-1.685,1.301-3.093,2.988-3.093s3.033,1.48,3.033,3.103
	C16.033,4.807,16,6.092,16,6.092H19z M13,2.952c-0.553,0-1,0.526-1,1.077c0,0.552,0.448,1,1,1c0.553,0,1-0.448,1-1
	C14,3.479,13.553,2.952,13,2.952z"/>
</svg>
