<?xml version="1.0" encoding="utf-8"?>
<!-- Generator: Adobe Illustrator 16.0.0, SVG Export Plug-In . SVG Version: 6.00 Build 0)  -->
<!DOCTYPE svg PUBLIC "-//W3C//DTD SVG 1.1//EN" "http://www.w3.org/Graphics/SVG/1.1/DTD/svg11.dtd">
<svg version="1.1" id="图层_1" xmlns="http://www.w3.org/2000/svg" xmlns:xlink="http://www.w3.org/1999/xlink" x="0px" y="0px"
	 width="30px" height="30px" viewBox="0 0 30 30" enable-background="new 0 0 30 30" xml:space="preserve">
<path fill-rule="evenodd" clip-rule="evenodd" fill="#6F2727" d="M29.703,25.89c-0.858,2.363-2.976,3.911-5.308,4.072v0.029
	c-14.585,0-24.387-9.75-24.387-24.449H0.05c0.189-2.307,1.719-4.395,4.049-5.245C7.263-0.857,8.47,1.615,9.622,4.787
	c1.152,3.172,1.812,5.843-1.352,6.998c-0.363,0.132-0.731,0.217-1.101,0.276c1.293,5.33,5.481,9.486,10.798,10.762
	c0.06-0.373,0.146-0.746,0.278-1.113c1.151-3.172,3.816-2.51,6.98-1.355S30.854,22.718,29.703,25.89z"/>
</svg>
