<?xml version="1.0" encoding="utf-8"?>
<!-- Generator: Adobe Illustrator 16.0.0, SVG Export Plug-In . SVG Version: 6.00 Build 0)  -->
<!DOCTYPE svg PUBLIC "-//W3C//DTD SVG 1.1//EN" "http://www.w3.org/Graphics/SVG/1.1/DTD/svg11.dtd">
<svg version="1.1" id="图层_1" xmlns="http://www.w3.org/2000/svg" xmlns:xlink="http://www.w3.org/1999/xlink" x="0px" y="0px"
	 width="32px" height="32px" viewBox="0 0 32 32" enable-background="new 0 0 32 32" xml:space="preserve">
<path fill-rule="evenodd" clip-rule="evenodd" fill="#6F2727" d="M28,32H4c-2.209,0-4-1.791-4-4V4c0-2.209,1.791-4,4-4h24
	c2.209,0,4,1.791,4,4v24C32,30.209,30.209,32,28,32z M28,30c1.104,0,2-0.896,2-2v-8.001l-6-6l-8.537,8.536L22.832,30H28z M2,28
	c0,1.104,0.896,2,2,2h16.001L9.945,19.944L2,27.061V28z M30,4c0-1.104-0.896-2-2-2H4C2.896,2,2,2.896,2,4v20.336L10,17l4.058,4.111
	L24,11l6,6.128V4z M8,12c-2.209,0-4-1.791-4-4s1.791-4,4-4s4,1.791,4,4S10.209,12,8,12z M8,6C6.896,6,6,6.896,6,8s0.896,2,2,2
	s2-0.896,2-2S9.104,6,8,6z"/>
</svg>
