<?xml version="1.0" encoding="utf-8"?>
<!-- Generator: Adobe Illustrator 16.0.0, SVG Export Plug-In . SVG Version: 6.00 Build 0)  -->
<!DOCTYPE svg PUBLIC "-//W3C//DTD SVG 1.1//EN" "http://www.w3.org/Graphics/SVG/1.1/DTD/svg11.dtd">
<svg version="1.1" id="图层_1" xmlns="http://www.w3.org/2000/svg" xmlns:xlink="http://www.w3.org/1999/xlink" x="0px" y="0px"
	 width="36px" height="32px" viewBox="0 0 36 32" enable-background="new 0 0 36 32" xml:space="preserve">
<path d="M18,5.721l2.663,7.138l0.485,1.301h1.389h6.901l-5.499,4.072l-1.092,0.809l0.35,1.313l1.859,6.979l-5.934-4.027l-1.09-0.74
	l-1.11,0.709l-6.349,4.057l2.201-6.882l0.437-1.364l-1.151-0.853l-5.5-4.072h6.902h1.389l0.485-1.301L18,5.721 M18,0l-4.537,12.16
	H0.5l10.37,7.68L6.981,32L18,24.96L28.37,32l-3.24-12.16l10.37-7.68H22.537L18,0L18,0z"/>
</svg>
