<?xml version="1.0" encoding="utf-8"?>
<!-- Generator: Adobe Illustrator 16.0.0, SVG Export Plug-In . SVG Version: 6.00 Build 0)  -->
<!DOCTYPE svg PUBLIC "-//W3C//DTD SVG 1.1//EN" "http://www.w3.org/Graphics/SVG/1.1/DTD/svg11.dtd">
<svg version="1.1" id="图层_1" xmlns="http://www.w3.org/2000/svg" xmlns:xlink="http://www.w3.org/1999/xlink" x="0px" y="0px"
	 width="34px" height="28px" viewBox="0 0 34 28" enable-background="new 0 0 34 28" xml:space="preserve">
<g>
	<g>
		<path fill="#8C2D2C" d="M34.002,17.954c0-4.864-4.814-8.828-10.223-8.828c-5.727,0-10.236,3.964-10.236,8.828
			c0,4.872,4.51,8.828,10.236,8.828c1.198,0,2.407-0.306,3.611-0.611l3.301,1.828l-0.905-3.04
			C32.201,23.127,34.002,20.697,34.002,17.954z M20.46,16.432c-0.599,0-1.204-0.602-1.204-1.217c0-0.607,0.605-1.218,1.204-1.218
			c0.911,0,1.507,0.61,1.507,1.218C21.967,15.83,21.371,16.432,20.46,16.432z M27.08,16.432c-0.596,0-1.195-0.602-1.195-1.217
			c0-0.607,0.6-1.218,1.195-1.218c0.902,0,1.506,0.61,1.506,1.218C28.586,15.83,27.982,16.432,27.08,16.432z M23.018,8.473
			c0.391,0,0.775,0.028,1.158,0.071c-1.041-4.901-6.225-8.543-12.143-8.543c-6.616,0-12.035,4.558-12.035,10.346
			c0,3.342,1.803,6.085,4.816,8.213L3.61,22.219l4.207-2.132c1.506,0.301,2.714,0.61,4.216,0.61c0.378,0,0.752-0.019,1.123-0.048
			c-0.234-0.813-0.371-1.665-0.371-2.55C12.785,12.785,17.301,8.473,23.018,8.473z M16.546,5.174c0.906,0,1.507,0.603,1.507,1.518
			c0,0.913-0.601,1.522-1.507,1.522c-0.901,0-1.807-0.609-1.807-1.522C14.739,5.776,15.645,5.174,16.546,5.174z M8.123,8.214
			c-0.901,0-1.812-0.609-1.812-1.522c0-0.915,0.91-1.518,1.812-1.518c0.902,0,1.503,0.603,1.503,1.518
			C9.626,7.604,9.025,8.214,8.123,8.214z"/>
	</g>
</g>
</svg>
